<svg xmlns="http://www.w3.org/2000/svg" viewBox="0 0 32 32">
  <rect x="6" y="6" width="20" height="20" rx="3" fill="#f37021"/>
  <rect x="9" y="9" width="14" height="14" rx="2" fill="#0f172a"/>
  <rect x="12" y="12" width="8" height="8" rx="1" fill="#f37021"/>
  <rect x="3" y="10" width="4" height="2" rx="0.5" fill="#f37021"/>
  <rect x="3" y="15" width="4" height="2" rx="0.5" fill="#f37021"/>
  <rect x="3" y="20" width="4" height="2" rx="0.5" fill="#f37021"/>
  <rect x="25" y="10" width="4" height="2" rx="0.5" fill="#f37021"/>
  <rect x="25" y="15" width="4" height="2" rx="0.5" fill="#f37021"/>
  <rect x="25" y="20" width="4" height="2" rx="0.5" fill="#f37021"/>
  <rect x="10" y="3" width="2" height="4" rx="0.5" fill="#f37021"/>
  <rect x="15" y="3" width="2" height="4" rx="0.5" fill="#f37021"/>
  <rect x="20" y="3" width="2" height="4" rx="0.5" fill="#f37021"/>
  <rect x="10" y="25" width="2" height="4" rx="0.5" fill="#f37021"/>
  <rect x="15" y="25" width="2" height="4" rx="0.5" fill="#f37021"/>
  <rect x="20" y="25" width="2" height="4" rx="0.5" fill="#f37021"/>
</svg>
