<svg xmlns="http://www.w3.org/2000/svg" viewBox="0 0 512 512">
  <!-- Background circle -->
  <circle cx="256" cy="256" r="240" fill="#0f172a"/>
  
  <!-- Chip body -->
  <rect x="136" y="136" width="240" height="240" rx="20" fill="#f37021"/>
  
  <!-- Inner chip detail -->
  <rect x="176" y="176" width="160" height="160" rx="10" fill="#0f172a"/>
  
  <!-- Center circuit pattern -->
  <rect x="216" y="216" width="80" height="80" rx="5" fill="#f37021"/>
  <rect x="236" y="236" width="40" height="40" rx="3" fill="#0f172a"/>
  
  <!-- Pins - Top -->
  <rect x="170" y="106" width="16" height="40" rx="3" fill="#f37021"/>
  <rect x="210" y="106" width="16" height="40" rx="3" fill="#f37021"/>
  <rect x="250" y="106" width="16" height="40" rx="3" fill="#f37021"/>
  <rect x="290" y="106" width="16" height="40" rx="3" fill="#f37021"/>
  <rect x="330" y="106" width="16" height="40" rx="3" fill="#f37021"/>
  
  <!-- Pins - Bottom -->
  <rect x="170" y="366" width="16" height="40" rx="3" fill="#f37021"/>
  <rect x="210" y="366" width="16" height="40" rx="3" fill="#f37021"/>
  <rect x="250" y="366" width="16" height="40" rx="3" fill="#f37021"/>
  <rect x="290" y="366" width="16" height="40" rx="3" fill="#f37021"/>
  <rect x="330" y="366" width="16" height="40" rx="3" fill="#f37021"/>
  
  <!-- Pins - Left -->
  <rect x="106" y="170" width="40" height="16" rx="3" fill="#f37021"/>
  <rect x="106" y="210" width="40" height="16" rx="3" fill="#f37021"/>
  <rect x="106" y="250" width="40" height="16" rx="3" fill="#f37021"/>
  <rect x="106" y="290" width="40" height="16" rx="3" fill="#f37021"/>
  <rect x="106" y="330" width="40" height="16" rx="3" fill="#f37021"/>
  
  <!-- Pins - Right -->
  <rect x="366" y="170" width="40" height="16" rx="3" fill="#f37021"/>
  <rect x="366" y="210" width="40" height="16" rx="3" fill="#f37021"/>
  <rect x="366" y="250" width="40" height="16" rx="3" fill="#f37021"/>
  <rect x="366" y="290" width="40" height="16" rx="3" fill="#f37021"/>
  <rect x="366" y="330" width="40" height="16" rx="3" fill="#f37021"/>
</svg>
